<?xml version="1.0" encoding="UTF-8" standalone="no"?>
<!DOCTYPE svg PUBLIC "-//W3C//DTD SVG 1.1//EN" "http://www.w3.org/Graphics/SVG/1.1/DTD/svg11.dtd">
<svg width="100%" height="100%" viewBox="-68 0 680 543" version="1.1" xmlns="http://www.w3.org/2000/svg" xmlns:xlink="http://www.w3.org/1999/xlink" xml:space="preserve" xmlns:serif="http://www.serif.com/" style="fill-rule:evenodd;clip-rule:evenodd;stroke-linejoin:round;stroke-miterlimit:2;">
  <g fill="#1e3a5f">
    <g>
      <path d="M279.797,316.345c0.579,-0.01 1.158,-0.019 1.737,-0.029c0.247,-0.394 1.679,0.373 1.101,-1.757c-10.703,-39.449 -134.912,-126.354 -74.947,-206.766c55.365,-74.245 193.225,-11.551 127.553,104.458c-1.487,2.627 -30.582,51.321 -42.722,50.785c-6.88,-0.304 -16.705,-8.986 -6.71,-20.699c15.201,-17.814 77.239,-85.863 22.569,-132.635c-40.733,-34.848 -136.696,8.301 -73.187,102.443c29.875,44.286 38.602,38.26 78.485,110.065c13.247,23.85 19.737,29.901 12.53,38.985c-20.461,25.791 -24.39,28.396 -43.261,69.532c-6.327,13.791 -5.771,-2.887 -5.753,-3.422c1.353,-40.615 -2.624,-60.529 3.685,-66.207c19.032,-17.129 -14.43,-35.857 -21.23,-15.639c-4.048,12.037 7.608,15.618 7.796,21.818c0.165,5.44 2.005,66.014 0.156,68.027c-5.557,6.048 -3.772,-17.532 -44.992,-69.151c-12.454,-15.596 -4.742,-17.673 7.246,-39.285c18.151,-32.723 19.872,-44.906 29.336,-37.015c7.744,6.457 19.159,24.234 20.61,26.493Z"/>
      <path d="M287.012,0.223c7.261,1.089 53.025,7.955 84.778,35.168c42.877,36.747 76.888,107.811 38.245,191.625c-3.846,8.341 -23.333,50.607 -60.213,97.753c-7.014,8.967 -30.349,3.578 -14.873,-18.794c40.369,-58.356 114.19,-147.824 34.924,-241.599c-57.342,-67.838 -198.926,-58.673 -227.97,64.815c-20.184,85.817 78.669,176.91 73.451,192.431c-0.702,2.088 -10.406,16.828 -22.032,1.451c-81.284,-107.505 -77.006,-162.225 -75.802,-177.628c4.352,-55.674 46.287,-150.658 169.493,-145.223Z"/>
    </g>
    <g>
      <g transform="matrix(104.326671,0,0,104.326671,-0.417307,541.694358)">
        <path d="M0.25,-0l0,-0.636l-0.246,0l-0,-0.064l0.566,0l0,0.064l-0.246,0l0,0.636l-0.073,-0Z" style="fill-rule:nonzero;"/>
      </g>
      <g transform="matrix(104.326671,0,0,104.326671,58.005629,541.694358)">
        <path d="M0.316,0.005c-0.045,0 -0.084,-0.008 -0.118,-0.025c-0.033,-0.017 -0.059,-0.042 -0.078,-0.075c-0.018,-0.034 -0.027,-0.075 -0.027,-0.125l0,-0.305l0.071,0l0,0.298c0,0.056 0.014,0.098 0.042,0.126c0.028,0.028 0.067,0.043 0.117,0.043c0.037,0 0.068,-0.008 0.095,-0.023c0.027,-0.015 0.048,-0.037 0.062,-0.066c0.015,-0.029 0.022,-0.063 0.022,-0.102l0,-0.276l0.071,0l0,0.525l-0.068,-0l0,-0.144l0.011,0.026c-0.017,0.038 -0.042,0.068 -0.077,0.09c-0.035,0.022 -0.076,0.032 -0.122,0.032Z" style="fill-rule:nonzero;"/>
      </g>
      <g transform="matrix(104.326671,0,0,104.326671,128.113151,541.694358)">
        <path d="M0.265,0.005c-0.049,0 -0.087,-0.013 -0.114,-0.04c-0.027,-0.027 -0.04,-0.064 -0.04,-0.113l0,-0.492l0.071,0l0,0.489c0,0.031 0.008,0.055 0.023,0.072c0.016,0.017 0.038,0.025 0.067,0.025c0.031,0 0.057,-0.009 0.078,-0.027l0.025,0.051c-0.014,0.012 -0.03,0.021 -0.05,0.027c-0.02,0.006 -0.04,0.009 -0.061,0.009Zm-0.248,-0.471l0,-0.059l0.324,0l0,0.059l-0.324,0Z" style="fill-rule:nonzero;"/>
      </g>
      <g transform="matrix(104.326671,0,0,104.326671,168.487573,541.694358)">
        <path d="M0.314,0.005c-0.051,0 -0.097,-0.011 -0.137,-0.034c-0.04,-0.023 -0.072,-0.055 -0.095,-0.095c-0.023,-0.041 -0.035,-0.087 -0.035,-0.138c0,-0.052 0.012,-0.099 0.035,-0.139c0.023,-0.04 0.055,-0.071 0.095,-0.094c0.04,-0.023 0.086,-0.034 0.137,-0.034c0.051,0 0.097,0.011 0.138,0.034c0.04,0.023 0.072,0.054 0.095,0.094c0.023,0.04 0.035,0.086 0.035,0.139c0,0.052 -0.011,0.098 -0.034,0.138c-0.023,0.04 -0.055,0.072 -0.095,0.095c-0.041,0.023 -0.086,0.034 -0.138,0.034Zm0,-0.063c0.038,0 0.071,-0.009 0.101,-0.026c0.03,-0.017 0.053,-0.041 0.07,-0.072c0.017,-0.031 0.025,-0.067 0.025,-0.107c0,-0.041 -0.008,-0.077 -0.025,-0.108c-0.017,-0.031 -0.04,-0.054 -0.07,-0.071c-0.03,-0.017 -0.063,-0.025 -0.1,-0.025c-0.037,0 -0.071,0.008 -0.1,0.025c-0.029,0.017 -0.053,0.041 -0.07,0.071c-0.017,0.031 -0.026,0.067 -0.026,0.108c0,0.041 0.009,0.076 0.026,0.107c0.017,0.031 0.041,0.055 0.07,0.072c0.029,0.017 0.063,0.026 0.1,0.026Z" style="fill-rule:nonzero;"/>
      </g>
      <g transform="matrix(104.326671,0,0,104.326671,233.900395,541.694358)">
        <path d="M0.099,-0l0,-0.525l0.068,0l0,0.144l-0.007,-0.025c0.015,-0.04 0.039,-0.07 0.074,-0.091c0.035,-0.021 0.078,-0.032 0.129,-0.032l0,0.069c-0.003,-0 -0.006,-0.001 -0.008,-0.001c-0.003,-0 -0.005,-0 -0.008,-0c-0.055,-0 -0.098,0.017 -0.129,0.05c-0.031,0.034 -0.047,0.081 -0.047,0.143l0,0.268l-0.071,-0Z" style="fill-rule:nonzero;"/>
      </g>
      <text x="298.308px" y="540.504px" style="font-family:'IstokWeb-Bold', 'Istok Web', sans-serif;font-weight:700;font-size:104.327px;">Atlas</text>
    </g>
  </g>
</svg>